<?xml version="1.0" standalone="no"?>
<!DOCTYPE svg PUBLIC "-//W3C//DTD SVG 20010904//EN"
 "http://www.w3.org/TR/2001/REC-SVG-20010904/DTD/svg10.dtd">
<svg version="1.0" xmlns="http://www.w3.org/2000/svg"
 width="300.000000pt" height="197.000000pt" viewBox="0 0 300.000000 197.000000"
 preserveAspectRatio="xMidYMid meet">
<metadata>
Created by potrace 1.10, written by Peter Selinger 2001-2011
</metadata>
<g transform="translate(0.000000,197.000000) scale(0.100000,-0.100000)"
fill="#000000" stroke="none">
<path d="M30 1840 c0 -5 5 -10 10 -10 6 0 10 5 10 10 0 6 -4 10 -10 10 -5 0
-10 -4 -10 -10z"/>
<path d="M1742 1696 c-22 -11 -40 -51 -28 -63 3 -4 6 4 6 16 0 16 5 21 14 18
8 -3 17 1 20 9 3 8 11 14 17 14 7 0 6 -9 -5 -24 -10 -15 -12 -27 -6 -31 6 -3
10 1 10 9 0 8 5 18 11 22 16 10 1 -37 -18 -56 -14 -13 -15 -13 -10 2 3 9 -1
22 -9 28 -15 13 -15 14 -18 -41 -1 -14 -19 -50 -40 -79 -21 -29 -46 -71 -55
-94 l-18 -40 -6 31 c-3 17 -19 52 -36 77 -17 28 -27 55 -24 66 7 27 -12 48
-42 48 -27 0 -33 -10 -29 -53 1 -16 3 -35 3 -40 1 -6 15 -12 33 -13 57 -5 84
-46 97 -147 7 -60 6 -64 -16 -74 -13 -6 -26 -17 -29 -25 -4 -12 -11 -13 -29
-4 -41 19 -74 2 -96 -48 -13 -29 -30 -49 -46 -55 -32 -12 -74 -44 -68 -53 3
-3 2 -4 -2 -1 -4 3 -8 13 -8 23 -1 9 -11 40 -22 67 -10 28 -19 64 -18 80 1 17
-6 35 -14 42 -13 9 -14 14 -3 24 14 15 16 33 3 24 -5 -3 -11 0 -14 7 -2 7 -2
2 0 -11 4 -23 3 -24 -19 -9 -32 21 -45 61 -29 94 l12 26 24 -26 c28 -30 51
-33 83 -10 47 33 67 -31 25 -78 -10 -12 -20 -15 -27 -9 -15 12 -54 -15 -40
-29 6 -6 24 -4 49 5 22 8 34 14 27 15 -9 0 -6 10 10 29 36 46 93 38 68 -9 -11
-21 -64 -53 -73 -44 -3 3 -21 -2 -41 -10 -36 -15 -37 -16 -21 -40 13 -19 13
-25 3 -29 -9 -3 -8 -7 5 -12 29 -12 32 3 8 35 l-22 30 28 0 c14 0 45 9 68 20
70 34 87 100 26 100 -20 0 -30 6 -34 20 -7 26 -35 36 -58 22 -29 -18 -60 -14
-87 11 -23 22 -24 22 -38 3 -8 -11 -14 -26 -14 -33 0 -7 -8 -13 -17 -13 -10 0
-26 -7 -35 -14 -42 -31 -3 -100 62 -111 38 -6 39 -8 25 -28 -17 -24 -20 -67
-5 -67 6 0 19 15 30 33 17 27 20 29 20 10 0 -21 29 -99 51 -136 6 -11 8 -21 6
-23 -6 -7 -66 28 -93 54 -13 12 -32 22 -43 22 -11 0 -23 4 -26 10 -3 6 -23 -1
-46 -16 l-40 -25 16 31 c11 21 15 51 13 97 l-3 66 -44 -56 -44 -55 -39 76
c-39 76 -39 77 -22 109 9 18 20 30 25 28 10 -7 -8 56 -20 68 -32 32 -91 -53
-91 -131 0 -26 -4 -41 -10 -37 -13 8 -13 71 1 135 10 47 14 53 57 73 60 29 80
62 61 102 -8 16 -20 30 -26 33 -22 7 -71 -52 -78 -94 -3 -21 -9 -50 -11 -64
l-6 -25 -13 25 c-8 14 -14 48 -15 76 0 53 -27 104 -55 104 -18 0 -45 -39 -45
-66 0 -22 60 -84 81 -84 6 0 8 -7 5 -16 -3 -8 -2 -12 4 -9 17 11 32 -35 24
-78 -4 -23 -6 -53 -5 -67 2 -14 0 -22 -4 -18 -4 4 -17 3 -30 -2 -17 -6 -27 -5
-35 6 -29 33 -120 -2 -120 -47 0 -17 -5 -19 -34 -14 -19 4 -43 4 -54 1 -26 -9
-63 -71 -55 -92 5 -14 3 -15 -14 -5 -30 16 -47 -8 -39 -56 3 -21 9 -62 12 -91
5 -43 12 -57 42 -83 33 -29 40 -31 86 -26 28 4 61 9 73 13 23 6 23 6 8 -30
-16 -38 -20 -86 -7 -86 13 0 60 53 70 79 8 23 9 22 36 -23 15 -26 41 -59 58
-74 26 -23 29 -32 24 -62 -4 -19 -7 -42 -8 -50 -2 -12 -16 -6 -59 22 -31 21
-62 38 -68 38 -7 0 1 -26 20 -61 31 -57 67 -89 103 -89 8 0 17 -4 20 -9 8 -13
-73 -1 -105 15 -21 10 -25 19 -21 39 4 22 -5 36 -51 81 -31 30 -61 54 -67 54
-10 0 32 -103 52 -128 7 -8 23 -18 36 -23 39 -15 18 -22 -27 -9 -39 10 -68 41
-63 67 5 23 -37 91 -75 122 -30 25 -39 28 -41 16 -5 -23 18 -86 45 -122 26
-35 17 -46 -11 -14 -12 13 -26 18 -43 15 -19 -4 -34 3 -54 22 -28 27 -82 42
-131 36 -37 -4 -35 -14 10 -48 33 -26 45 -29 118 -31 61 -1 91 -7 120 -22 l39
-20 -45 5 c-47 6 -122 -14 -121 -31 3 -32 145 -45 191 -18 25 14 35 15 85 4
31 -7 54 -15 52 -17 -3 -3 -27 -7 -55 -8 -52 -4 -89 -23 -127 -66 l-20 -23 54
7 c71 9 122 31 128 55 7 29 89 43 123 21 12 -8 11 -10 -6 -10 -12 0 -25 -7
-28 -16 -5 -12 -2 -15 11 -10 14 6 14 4 -3 -15 -21 -23 -93 -63 -100 -56 -7 6
58 73 76 79 8 3 12 8 8 12 -9 10 -86 -61 -104 -96 l-15 -29 51 26 c28 14 56
23 63 19 7 -4 9 -4 6 0 -4 4 4 19 17 34 14 15 31 35 39 45 10 11 29 17 58 17
l42 0 -40 -19 c-41 -19 -147 -142 -111 -128 10 4 20 7 22 7 3 0 3 4 0 9 -3 5
13 29 35 55 41 47 64 59 52 29 -4 -11 -3 -14 6 -9 7 5 10 14 8 20 -3 7 1 13 8
13 26 0 -2 -42 -49 -75 -48 -32 -54 -42 -13 -21 38 20 76 61 82 90 6 27 25 41
25 20 0 -5 7 -17 16 -25 12 -13 39 -16 124 -16 110 0 140 5 140 22 0 5 -5 6
-12 2 -20 -13 -192 -13 -200 0 -6 8 -8 8 -8 -1 0 -20 -20 -15 -20 5 0 14 -2
15 -10 2 -8 -12 -10 -12 -16 3 -9 25 -3 28 33 18 17 -5 36 -5 44 0 8 5 20 2
32 -9 17 -15 71 -19 142 -10 16 2 20 -2 18 -22 -12 -122 -9 -145 33 -236 23
-49 46 -100 52 -114 l11 -25 0 23 c1 13 12 43 26 67 14 23 28 65 32 93 l6 50
84 -29 c47 -16 95 -36 108 -45 l23 -15 -5 48 c-11 95 -44 143 -160 229 -52 39
-73 60 -69 70 3 9 6 18 6 20 0 2 19 -9 42 -26 50 -36 101 -39 159 -9 28 14 58
20 92 19 80 -3 85 -2 107 23 28 29 22 2 -6 -29 -19 -22 -37 -55 -82 -151 -15
-33 -10 -53 14 -53 19 0 30 28 16 42 -17 17 27 128 62 157 14 12 16 7 16 -45
0 -33 5 -77 11 -99 5 -22 11 -53 12 -70 2 -23 7 -30 23 -31 17 -1 20 3 16 20
-3 12 -11 26 -19 31 -13 10 -33 96 -33 142 0 23 2 22 33 -15 17 -22 37 -48 43
-58 10 -18 11 -17 23 4 10 19 9 23 -11 31 -48 18 -82 72 -93 143 l-7 46 38 -4
c47 -6 81 11 110 53 14 22 25 29 34 23 12 -7 12 -12 -1 -27 -9 -10 -22 -44
-29 -76 -13 -55 -12 -59 8 -80 19 -18 25 -20 42 -9 11 6 28 12 38 12 10 0 23
5 30 12 30 30 -3 129 -47 143 -25 8 -28 25 -3 25 24 -1 102 -37 102 -48 0 -6
-7 -23 -15 -38 -19 -36 -20 -128 -2 -143 13 -10 54 -2 100 20 22 12 22 -4 0
-37 -15 -24 -15 -27 3 -51 11 -15 27 -31 35 -36 26 -16 66 1 89 37 18 30 20
40 10 74 -5 22 -20 51 -31 66 -33 43 -16 40 34 -5 39 -34 47 -47 47 -75 0 -39
32 -108 56 -122 24 -14 60 -3 74 23 28 53 -16 118 -89 131 -42 8 -63 22 -54
37 3 5 1 7 -4 4 -6 -4 -17 1 -24 10 -13 15 -11 15 16 8 17 -4 53 -8 80 -9 l50
-1 -2 43 c-1 24 -7 50 -13 57 -8 10 -7 16 7 24 17 10 17 10 1 11 -11 0 -18 7
-17 18 0 10 3 12 6 4 2 -6 9 -10 13 -7 5 3 14 -4 20 -15 8 -14 8 -20 0 -20 -6
0 -8 -4 -5 -10 10 -16 43 11 41 36 0 12 -4 20 -7 18 -4 -2 -14 5 -24 16 -10
11 -23 20 -29 20 -16 0 -38 39 -30 52 4 6 3 9 -2 6 -5 -3 -25 7 -44 23 -44 38
-22 37 60 -2 80 -37 140 -93 140 -129 0 -34 27 -58 63 -58 25 0 27 3 23 32 -5
29 -28 56 -50 56 -5 0 -35 20 -65 44 -31 24 -74 53 -96 64 l-40 22 80 -7 c63
-5 86 -11 108 -29 28 -24 67 -32 67 -15 0 5 -8 7 -18 4 -10 -2 -29 5 -43 17
l-24 21 35 -13 c35 -13 80 -13 80 0 -1 17 -51 53 -67 49 -14 -4 -12 -5 5 -6
31 -1 19 -18 -13 -18 -13 0 -22 3 -19 8 7 12 -3 11 -24 -2 -13 -8 -45 -9 -113
-2 -52 6 -104 6 -115 2 -28 -10 -34 -3 -34 35 1 39 38 123 39 88 1 -12 -6 -39
-14 -59 -8 -19 -15 -39 -15 -44 0 -14 17 -10 17 4 1 11 25 108 29 115 1 1 13
-3 27 -9 15 -7 25 -15 23 -18 -2 -3 20 -7 50 -9 35 -2 54 1 54 8 0 8 -12 10
-32 6 -31 -6 -31 -5 -8 5 14 6 41 18 60 27 19 9 40 18 45 21 6 2 3 -4 -5 -15
-8 -10 1 -5 19 11 38 34 57 65 41 65 -5 0 -10 -6 -10 -13 0 -8 -10 -22 -21
-33 l-22 -19 7 48 c5 33 4 53 -5 63 -11 13 -8 14 17 9 62 -14 64 -16 64 -46 0
-38 -72 -113 -101 -106 -10 3 -17 1 -13 -4 3 -5 -2 -9 -11 -9 -9 0 -13 -4 -10
-10 8 -13 73 20 104 54 13 14 28 23 34 19 6 -3 7 -1 3 5 -3 6 -2 21 2 34 12
33 4 57 -21 64 -13 3 -31 24 -43 47 -19 39 -24 42 -60 42 -47 0 -64 10 -64 35
0 32 -18 33 -105 5 -59 -19 -88 -33 -100 -51 -19 -30 -37 -31 -33 -2 2 14 13
24 32 29 31 8 62 33 77 61 15 27 -20 23 -65 -7 l-36 -24 0 34 c0 29 6 39 33
55 17 11 38 20 46 20 24 0 -8 -29 -43 -39 -23 -7 -26 -9 -9 -10 24 -1 86 46
78 59 -6 10 -61 -4 -81 -21 -12 -10 -20 -6 -44 19 -52 58 -71 31 -20 -28 21
-25 29 -46 30 -72 0 -44 -16 -49 -48 -15 -34 36 -26 45 9 11 18 -16 28 -22 23
-13 -11 20 -73 73 -79 67 -9 -8 42 -84 63 -93 16 -7 22 -18 22 -40 l0 -30 -18
28 c-19 28 -51 56 -65 57 -13 0 22 -74 44 -92 20 -17 20 -18 3 -47 l-18 -30
-16 37 c-18 39 -46 69 -56 59 -11 -11 8 -68 32 -96 21 -25 22 -30 9 -41 -12
-10 -15 -10 -15 2 0 8 -16 32 -35 54 l-36 39 4 -40 c3 -33 -1 -46 -27 -77 -17
-20 -40 -59 -50 -88 -10 -28 -21 -49 -23 -46 -3 3 -5 28 -5 55 2 46 -2 53 -46
99 -26 28 -62 58 -80 67 -41 20 -39 24 11 17 29 -3 37 -9 37 -24 0 -17 5 -19
28 -14 53 13 81 28 88 48 13 44 -31 43 -78 0 l-28 -26 0 34 c0 28 8 41 46 74
34 31 44 46 39 59 -13 31 -48 16 -70 -30 -11 -23 -23 -42 -27 -43 -3 0 -11 14
-17 31 -10 30 -8 35 29 75 39 43 50 76 29 89 -17 11 -46 -24 -60 -73 l-13 -47
-4 33 c-2 19 4 52 12 73 17 43 21 115 7 123 -5 3 -15 -2 -22 -11 -18 -21 -15
-185 4 -240 11 -32 11 -40 1 -40 -7 0 -11 4 -9 8 6 8 -61 69 -75 69 -18 0 -21
-22 -5 -40 9 -10 39 -28 66 -39 27 -12 49 -26 49 -30 0 -5 3 -17 7 -27 6 -16
3 -16 -28 4 -19 12 -33 25 -32 29 1 5 -21 9 -48 11 -39 2 -49 0 -49 -12 0 -9
-6 -16 -14 -16 -8 0 -26 -14 -40 -30 l-25 -30 -48 22 c-26 13 -50 24 -53 26
-9 7 124 122 140 122 33 0 60 30 57 63 -2 26 -7 33 -28 35 -21 2 -29 -3 -43
-32 -9 -19 -13 -41 -10 -50 3 -9 2 -16 -3 -16 -5 0 -35 -24 -66 -53 -62 -57
-68 -53 -46 26 10 39 82 151 129 202 35 38 42 59 30 90 -10 27 -14 28 -48 11z
m-941 -63 c12 -32 12 -80 -1 -88 -14 -8 -70 49 -70 71 0 25 29 54 47 47 8 -3
19 -17 24 -30z m159 -32 c0 -34 -8 -45 -48 -65 -26 -14 -33 -14 -38 -3 -7 18
13 67 38 94 26 27 48 15 48 -26z m987 -22 c-4 -29 -9 -54 -12 -57 -12 -13 -17
10 -10 57 9 69 30 68 22 0z m-407 -17 c0 -7 -4 -10 -10 -7 -5 3 -10 16 -10 28
0 18 2 19 10 7 5 -8 10 -21 10 -28z m-21 -7 c18 -31 19 -36 5 -42 -8 -3 -21 0
-27 7 -10 10 -7 11 13 5 l25 -7 -22 17 c-13 9 -23 25 -23 36 0 27 5 24 29 -16z
m467 -85 c-15 -22 -28 -40 -31 -40 -9 0 26 84 38 92 23 14 19 -13 -7 -52z
m341 14 c-4 -4 -14 1 -22 12 -22 29 -18 41 7 17 12 -13 19 -26 15 -29z m-548
5 c-14 -28 3 -48 26 -29 10 8 15 9 15 2 0 -6 -9 -16 -19 -22 -26 -13 -34 -13
-25 2 5 8 2 9 -10 5 -14 -6 -16 -3 -10 16 6 22 23 47 31 47 2 0 -1 -9 -8 -21z
m26 -9 c-10 -11 -20 -18 -23 -15 -3 3 3 14 13 25 10 11 20 18 23 15 3 -3 -3
-14 -13 -25z m-855 -20 c8 -15 7 -27 -5 -49 -18 -36 -56 -64 -68 -52 -18 18
29 121 54 121 5 0 13 -9 19 -20z m1452 -50 c-37 -34 -65 -41 -36 -9 16 18 48
37 64 38 3 0 -10 -13 -28 -29z m-487 -40 c11 -17 -11 -11 -39 11 -36 28 -33
45 4 19 16 -11 32 -25 35 -30z m135 31 c0 -10 -16 -31 -36 -46 l-36 -27 17 33
c31 60 55 78 55 40z m510 -6 c0 -8 5 -25 11 -39 10 -21 15 -23 37 -15 34 13
52 5 52 -23 0 -16 -3 -19 -9 -10 -7 11 -9 10 -14 -3 -4 -9 -3 -14 2 -11 5 3
11 0 14 -7 3 -8 -9 -12 -39 -13 -37 -1 -43 2 -48 23 -5 19 -13 23 -41 23 l-36
0 17 33 c28 55 54 76 54 42z m-1371 -31 c15 -41 10 -52 -13 -29 -9 9 -16 12
-16 6 0 -14 30 -28 58 -25 38 3 47 -30 20 -78 -17 -29 -24 -36 -26 -23 -2 10
5 30 17 46 20 26 14 48 -9 34 -5 -3 -10 -1 -10 5 0 6 -5 8 -11 5 -19 -12 -61
4 -55 21 3 8 2 12 -3 9 -16 -9 -23 33 -9 49 22 26 43 18 57 -20z m1313 0 c-16
-35 -17 -35 -23 -13 -7 24 -7 24 -8 2 -1 -28 -9 -29 -28 -5 -13 15 -13 15 -7
-8 6 -23 6 -24 -11 -10 -14 12 -19 12 -22 2 -3 -6 -9 -10 -14 -6 -12 7 -11 2
6 -32 10 -20 12 -39 6 -59 -7 -26 -9 -27 -14 -10 -14 48 -18 95 -9 111 8 15
107 62 134 63 4 1 0 -15 -10 -35z m-202 -57 c0 -7 -12 1 -25 16 -14 15 -25 33
-25 40 0 7 12 -1 25 -16 14 -15 25 -33 25 -40z m-1551 31 c7 -7 29 -13 49 -13
37 0 37 0 43 -50 3 -27 4 -54 1 -59 -9 -17 -32 27 -26 51 4 13 2 24 -5 24 -21
3 -26 4 -39 13 -7 4 -19 3 -26 -4 -8 -6 -16 -7 -18 -3 -3 4 -4 3 -2 -4 4 -16
-27 -41 -56 -45 -21 -2 -26 -10 -30 -43 l-6 -40 -16 38 c-10 20 -21 37 -25 38
-4 0 -19 2 -32 5 l-24 4 24 -19 24 -19 -24 -26 c-19 -20 -27 -23 -38 -15 -19
16 -16 47 8 81 21 30 34 32 89 17 9 -2 20 8 29 28 20 46 73 67 100 41z m157
-40 c-12 -51 -38 -73 -50 -42 -11 28 28 94 54 94 4 0 2 -23 -4 -52z m408 33
c3 -5 -3 -11 -15 -14 -16 -4 -18 -3 -8 9 13 16 16 17 23 5z m-365 -36 c37 -64
45 -107 26 -144 -9 -18 -14 -39 -11 -47 3 -7 1 -16 -3 -19 -13 -8 -22 58 -16
112 3 26 1 62 -4 78 -7 24 -9 12 -10 -62 -1 -50 3 -103 8 -116 6 -14 7 -37 3
-52 l-8 -27 -13 28 c-20 43 -25 144 -11 218 7 36 14 66 15 66 2 0 12 -16 24
-35z m958 9 c25 -14 42 -28 40 -31 -9 -8 -76 9 -88 23 -6 8 -18 14 -25 14 -8
0 -14 5 -14 10 0 18 43 10 87 -16z m527 -6 c5 14 15 22 30 22 18 0 25 -8 32
-37 10 -40 20 -48 79 -63 22 -5 51 -19 65 -30 l25 -20 -25 -20 c-36 -28 -123
-46 -155 -32 -22 10 -24 14 -13 31 7 11 15 18 18 16 3 -2 6 5 6 16 0 25 -2 24
-21 -8 l-16 -28 5 38 c3 24 1 35 -5 31 -6 -3 -9 -21 -7 -39 3 -41 -7 -54 -21
-27 -12 23 -1 65 26 94 10 12 12 18 4 18 -6 0 -19 -16 -28 -35 -22 -45 -34
-45 -20 0 7 26 7 42 -1 61 -7 14 -9 31 -5 37 5 7 10 0 13 -18 6 -28 7 -29 14
-7z m266 -14 c0 -7 -8 -10 -21 -7 -12 4 -18 11 -15 20 3 8 6 20 6 26 1 16 30
-23 30 -39z m-338 0 c4 -33 2 -35 -19 -31 -12 2 -20 1 -18 -3 3 -4 -4 -10 -15
-13 -23 -6 -24 -3 -10 24 6 10 21 19 33 20 21 0 21 1 2 8 -19 8 -19 8 0 19 11
6 21 12 21 12 1 0 4 -16 6 -36z m178 7 c-7 -14 -7 -22 0 -26 6 -4 10 -3 9 2
-4 23 3 25 16 6 12 -17 21 -20 38 -14 33 11 56 2 63 -24 9 -35 -4 -50 -26 -30
-18 16 -103 46 -118 42 -4 -1 -8 13 -10 31 -3 27 0 32 18 32 17 0 19 -3 10
-19z m-670 -26 c23 -19 47 -35 52 -35 19 0 118 -110 118 -131 0 -15 -4 -19
-16 -15 -9 3 -25 6 -37 6 -15 0 -27 11 -37 33 -13 28 -20 32 -53 32 -32 0 -37
3 -33 18 2 10 -7 31 -21 47 -19 23 -33 30 -61 30 l-35 0 23 25 c31 33 50 32
100 -10z m365 0 c24 -52 12 -68 -13 -18 -24 47 -26 53 -13 53 5 0 16 -16 26
-35z m-1458 9 c8 -21 -17 -68 -63 -119 -36 -41 -39 -51 -24 -75 8 -12 10 -9
10 12 0 15 12 42 28 60 15 18 36 46 46 61 23 37 39 24 55 -46 14 -63 6 -91
-35 -127 -75 -67 -100 -78 -210 -97 -32 -5 -86 16 -100 39 -5 7 -12 38 -16 68
-4 30 -10 72 -14 93 -7 41 3 47 50 25 l26 -11 -20 -33 c-19 -30 -19 -33 -4
-49 16 -15 15 -17 -5 -31 -24 -17 -21 -29 12 -44 20 -10 21 -10 4 3 -16 13
-16 15 -1 21 22 8 26 8 19 -3 -3 -5 -1 -12 5 -16 15 -10 2 -25 -23 -26 -27 -1
48 -28 78 -27 11 0 2 6 -19 12 -24 7 -35 15 -28 20 6 4 25 0 43 -9 46 -24 45
-12 -1 14 -22 12 -40 26 -40 31 0 5 19 19 41 31 l42 21 29 -22 c36 -27 45 -21
23 14 -14 21 -20 24 -32 14 -11 -9 -13 -8 -11 3 2 8 -2 13 -9 12 -7 -2 -10 3
-7 11 3 8 14 12 25 9 11 -3 19 -1 17 5 -2 6 6 17 16 25 17 12 17 14 2 20 -10
4 -16 1 -16 -7 0 -7 -8 -20 -17 -27 -15 -13 -16 -11 -10 11 4 14 7 42 7 63 0
34 2 37 28 37 17 0 38 10 52 25 27 29 38 31 47 9z m20 -16 c-3 -7 -5 -2 -5 12
0 14 2 19 5 13 2 -7 2 -19 0 -25z m1283 23 c0 -13 -21 -27 -60 -40 l-34 -11
29 30 c27 28 65 41 65 21z m-999 -112 c-13 -42 -33 -62 -56 -57 -13 2 -12 9 9
37 14 19 28 51 32 70 9 59 18 69 22 26 2 -22 -1 -56 -7 -76z m610 85 c14 -7
49 -16 77 -20 28 -3 58 -14 65 -23 8 -9 18 -42 22 -74 6 -55 5 -58 -26 -89
l-32 -33 -13 35 c-6 19 -11 53 -9 75 2 31 1 33 -4 11 -5 -27 -7 -28 -20 -13
-7 10 -21 32 -30 50 -21 42 -48 46 -78 10 -14 -15 -23 -21 -20 -13 2 8 7 24
11 36 4 15 2 21 -9 21 -12 0 -16 -9 -14 -36 2 -37 -8 -71 -20 -71 -9 0 -31 61
-31 86 0 22 28 59 50 67 17 6 44 0 81 -19z m-160 -14 c12 -7 19 -22 19 -43 1
-18 7 -43 15 -57 8 -14 14 -29 15 -33 0 -9 -51 49 -69 78 -13 20 -13 20 -6 0
4 -11 9 -26 12 -32 9 -23 -14 -14 -25 10 -6 12 -11 16 -11 9 -1 -7 -5 -10 -11
-7 -6 3 -7 -1 -3 -10 4 -12 8 -13 13 -5 5 8 9 7 13 -4 3 -8 3 -16 -1 -18 -4
-2 -20 -20 -36 -42 l-29 -39 -17 23 c-16 22 -18 22 -28 5 -7 -13 -7 -24 1 -36
10 -16 12 -16 25 -1 12 15 13 15 9 -5 -3 -14 3 -33 14 -47 13 -16 16 -27 9
-31 -13 -8 -52 24 -45 35 6 9 -25 37 -34 31 -3 -2 -12 7 -20 21 -13 23 -13 29
3 53 10 15 33 33 52 41 23 10 39 26 49 51 14 34 40 62 58 63 5 0 17 -5 28 -10z
m677 -84 c-3 -26 1 -30 32 -39 19 -5 64 -7 100 -3 l65 5 -30 -27 c-17 -15 -48
-42 -70 -59 -21 -18 -36 -36 -32 -40 4 -4 35 20 69 53 33 32 57 50 53 39 -4
-11 -10 -46 -13 -78 -4 -49 -2 -56 11 -51 11 4 33 -10 64 -39 42 -40 47 -49
48 -91 2 -45 1 -47 -21 -42 -32 8 -86 -16 -110 -49 l-20 -27 -67 33 -66 34 64
1 c36 1 72 7 80 14 17 14 20 56 5 65 -5 3 -10 13 -10 22 0 9 -7 21 -17 28 -32
24 -113 -41 -113 -91 0 -33 -15 -37 -70 -19 -60 20 -70 32 -33 40 39 8 128 52
144 71 9 11 10 20 2 32 -9 15 -3 19 46 28 l56 12 -61 -2 c-34 0 -59 -5 -56
-10 3 -5 0 -6 -6 -2 -8 5 -5 18 9 43 11 19 18 38 15 40 -3 3 -26 8 -51 10 -61
7 -68 23 -10 23 28 0 44 -4 40 -10 -3 -5 -2 -10 4 -10 5 0 13 4 16 10 6 10
-18 18 -70 22 -25 3 -30 7 -27 28 1 13 7 27 13 31 8 5 8 8 0 13 -6 4 -11 16
-11 27 0 10 -4 19 -10 19 -5 0 -10 10 -10 22 0 19 3 18 25 -12 17 -23 25 -45
23 -64z m-1603 46 c-3 -3 1 -12 8 -20 14 -18 17 -62 4 -62 -5 0 -7 -11 -3 -23
8 -35 -34 -53 -74 -32 -41 21 -38 42 14 96 42 44 43 47 28 65 -16 17 -15 17 6
0 12 -11 20 -21 17 -24z m451 14 c-9 -38 -59 -115 -74 -116 -24 0 6 68 51 118
26 28 31 28 23 -2z m1309 15 c-7 -13 -72 -34 -88 -28 -6 2 4 11 23 20 40 17
74 22 65 8z m-1489 -40 c-3 -22 -9 -48 -12 -58 -5 -12 -4 -15 4 -8 5 6 12 19
15 30 3 11 5 2 6 -20 1 -22 8 -58 16 -79 15 -42 12 -56 -10 -56 -8 0 -21 20
-29 48 -10 33 -15 39 -15 22 -1 -14 6 -38 14 -53 12 -24 13 -33 1 -55 -9 -18
-12 -49 -8 -92 l4 -65 -28 25 c-48 42 -90 97 -82 105 3 3 21 -2 41 -10 48 -20
49 -3 2 41 l-36 33 27 17 c14 10 37 34 49 55 21 32 22 41 13 73 -8 26 -8 42 0
61 18 40 36 31 28 -14z m1521 -6 l22 -34 -55 4 c-30 3 -59 7 -63 10 -5 2 -22
0 -39 -4 -29 -9 -30 -8 -19 10 7 12 23 19 42 19 16 1 41 7 55 15 33 19 32 20
57 -20z m-693 -7 c21 -30 20 -40 -6 -82 -27 -41 -38 -45 -38 -13 0 12 -4 29
-9 36 -6 10 -8 1 -4 -25 3 -21 1 -55 -5 -74 l-9 -35 -13 43 c-7 23 -17 42 -22
42 -5 0 -4 -9 2 -19 17 -33 11 -48 -10 -23 -11 13 -24 21 -29 18 -5 -3 -16 11
-24 32 -11 24 -16 30 -17 17 0 -17 -2 -18 -10 -5 -8 11 -9 7 -4 -14 5 -21 4
-27 -5 -22 -17 11 -13 -10 4 -24 13 -11 14 -10 9 5 -5 12 -4 16 3 12 7 -5 9 1
6 15 -3 20 -2 19 12 -5 9 -15 19 -26 23 -23 4 2 15 -7 25 -20 l19 -25 -29 7
c-15 4 -32 11 -38 17 -7 7 -5 7 4 2 10 -5 12 -4 7 4 -4 6 -13 8 -19 4 -7 -4
-20 -6 -30 -5 -12 2 -19 -5 -23 -27 l-6 -31 -19 24 c-25 32 -24 48 6 76 14 13
25 30 25 37 0 7 11 18 24 25 21 9 29 7 56 -16 34 -28 52 -34 44 -13 -5 13 62
107 77 107 4 0 15 -10 23 -22z m462 -37 c-8 -57 -42 -141 -65 -158 -23 -17
-23 -11 0 38 12 24 30 64 41 88 l19 45 -20 -18 c-11 -10 -18 -23 -14 -29 4 -6
1 -7 -7 -2 -9 6 -10 1 -5 -16 5 -19 4 -21 -4 -9 -9 12 -11 11 -11 -8 0 -35
-51 -137 -60 -121 -6 8 -12 -2 -20 -30 -6 -24 -14 -41 -17 -37 -9 9 6 55 25
74 10 10 31 49 47 86 28 66 78 146 91 146 4 0 4 -22 0 -49z m-233 -13 c8 -13
15 -43 16 -67 1 -24 7 -53 12 -64 14 -25 2 -87 -16 -87 -8 0 -30 7 -49 16 -38
19 -96 13 -116 -11 -21 -26 -31 -16 -15 14 9 18 26 32 42 36 16 3 39 15 53 26
25 20 24 20 -17 0 -51 -25 -60 -26 -60 -5 0 8 13 22 28 30 39 20 59 52 59 96
0 34 3 38 25 38 15 0 30 -9 38 -22z m452 11 l40 -1 -50 -9 c-60 -11 -164 -1
-144 13 8 5 37 7 64 4 28 -3 68 -6 90 -7z m-1174 -18 l24 -19 -27 -21 c-15
-12 -30 -30 -33 -41 -5 -15 -12 -18 -35 -13 -20 4 -41 -1 -65 -16 -20 -11 -48
-21 -62 -21 -16 0 -39 -14 -64 -38 -34 -35 -40 -37 -54 -23 -8 8 -15 12 -15 9
0 -4 7 -14 16 -23 9 -9 17 -34 18 -56 2 -34 -1 -39 -19 -39 -20 0 -22 6 -23
65 -2 59 1 69 24 91 16 17 32 24 45 21 18 -5 20 -2 15 19 -10 40 9 61 71 79
31 9 66 23 77 31 29 20 80 17 107 -5z m553 -53 c15 -52 13 -75 -4 -48 -6 8
-10 12 -10 7 0 -4 5 -16 12 -27 19 -30 -12 -86 -58 -105 -20 -8 -37 -15 -38
-15 0 0 -1 33 -1 74 0 67 3 78 32 120 18 25 37 46 42 46 5 0 16 -23 25 -52z
m-417 -55 c78 -84 83 -113 24 -142 l-40 -19 -10 27 c-6 14 -22 45 -35 69 -24
42 -24 42 -4 53 11 6 17 13 14 16 -3 4 -15 -2 -25 -11 -30 -27 -47 -9 -20 20
12 13 18 24 11 24 -15 0 -53 -50 -46 -61 3 -5 -4 -9 -15 -9 -27 0 -34 15 -20
42 21 42 42 58 72 58 25 0 43 -13 94 -67z m57 35 c-9 -14 -23 2 -17 18 4 12 8
13 14 3 4 -7 5 -17 3 -21z m620 16 c22 -22 19 -52 -9 -99 -18 -29 -25 -54 -25
-93 0 -46 -4 -58 -29 -82 -54 -54 -123 -49 -135 11 -8 42 1 50 24 19 16 -22
18 -22 17 -5 -2 24 40 34 55 13 8 -10 9 -9 5 4 -3 9 1 22 9 29 40 33 56 112
33 163 -22 48 18 77 55 40z m208 -19 l38 -7 -27 -38 c-15 -21 -46 -49 -68 -63
-44 -28 -120 -51 -135 -42 -6 3 -10 1 -10 -6 0 -7 -3 -9 -6 -6 -4 4 -1 13 5
21 7 8 10 20 6 26 -4 6 -3 9 2 8 4 -1 28 11 52 26 25 16 68 39 95 52 56 26 47
33 -10 9 -33 -13 -35 -13 -30 1 3 9 6 20 6 26 0 6 10 8 23 5 12 -3 39 -9 59
-12z m-1677 -5 c-4 -6 -10 -8 -15 -5 -5 3 -20 1 -32 -5 -22 -11 -22 -10 -4 4
22 18 61 22 51 6z m602 -52 c30 -29 35 -30 60 -19 24 11 29 10 44 -11 13 -16
14 -24 6 -27 -7 -2 -31 -22 -54 -44 -26 -25 -43 -35 -43 -27 0 12 -2 13 -9 1
-5 -8 -3 -24 6 -42 21 -42 14 -73 -18 -77 -21 -2 -28 2 -33 23 -4 14 -11 23
-16 20 -6 -3 -10 -1 -10 6 0 7 -2 10 -5 7 -10 -9 7 -38 18 -31 6 3 7 1 3 -5
-4 -7 -15 -12 -25 -12 -9 0 -22 -5 -29 -12 -9 -9 -12 -9 -12 0 0 7 5 12 11 12
6 0 1 12 -10 26 -29 37 -42 90 -30 121 8 21 14 24 36 18 31 -8 83 -42 83 -56
0 -5 5 -9 11 -9 6 0 8 7 5 16 -3 8 -2 12 4 9 6 -3 10 1 10 11 0 14 -3 14 -15
4 -13 -11 -19 -9 -38 8 -12 11 -37 24 -55 29 -17 4 -33 13 -34 18 -2 9 86 75
100 75 3 0 21 -14 39 -32z m443 -7 c54 -6 55 -7 58 -39 2 -19 -4 -44 -13 -58
-19 -30 -40 -33 -25 -3 7 11 9 23 6 27 -3 3 -6 -1 -6 -9 -1 -10 -5 -8 -15 5
-10 13 -15 15 -15 6 0 -9 -5 -7 -15 6 -8 10 -14 15 -14 9 -1 -5 8 -21 19 -35
16 -20 19 -21 14 -5 -6 16 -5 18 7 8 9 -10 10 -16 2 -24 -16 -16 -32 -2 -54
45 -10 22 -19 35 -19 28 0 -7 7 -26 15 -42 13 -25 13 -30 2 -30 -31 0 -73 76
-61 112 5 16 11 18 32 12 15 -4 52 -10 82 -13z m-810 -26 c13 -14 18 -25 12
-25 -7 0 -12 4 -12 9 0 5 -11 8 -25 7 -15 -2 -22 1 -19 8 3 6 -2 2 -10 -8 -9
-11 -16 -25 -16 -31 0 -6 -14 -24 -31 -41 l-31 -29 8 30 c9 38 34 88 41 82 2
-3 0 -16 -6 -29 -10 -20 -10 -21 1 -4 19 28 47 56 56 56 5 0 19 -11 32 -25z
m222 12 c-6 -7 -11 -22 -12 -32 0 -11 -2 -38 -4 -60 -2 -23 3 -49 10 -60 19
-27 17 -38 -5 -26 -10 6 -24 23 -30 40 -7 16 -21 31 -32 34 -16 4 -17 9 -8 36
6 17 24 42 41 56 32 27 59 35 40 12z m1748 -13 c0 -2 -15 -4 -32 -4 -23 0 -29
3 -19 9 12 8 51 4 51 -5z m-502 -6 c21 -21 13 -36 -33 -62 -66 -37 -86 -42
-78 -19 6 16 5 16 -10 4 -18 -14 -22 -5 -9 17 10 15 93 70 108 71 5 1 15 -4
22 -11z m-767 -42 c13 -28 13 -37 2 -52 -7 -10 -13 -25 -12 -33 0 -9 7 -1 15
16 13 29 16 32 40 23 14 -6 36 -10 50 -10 14 0 24 -6 24 -14 0 -8 4 -17 9 -20
5 -4 7 2 4 12 -3 15 8 24 54 44 53 23 60 24 76 10 9 -8 17 -29 17 -48 0 -28
-4 -33 -31 -39 -17 -4 -54 -4 -83 -1 -43 6 -61 3 -109 -19 -70 -33 -100 -28
-84 14 13 36 1 82 -23 88 -11 3 -20 11 -20 18 0 54 47 61 71 11z m422 1 c37
-13 37 -14 17 -32 -29 -26 -121 -33 -144 -10 -23 23 -16 38 25 52 36 13 42 12
102 -10z m-608 -28 c13 -25 14 -37 5 -65 -15 -45 -30 -43 -29 4 1 33 2 34 9
12 l8 -25 1 27 c1 20 -3 26 -18 25 -16 -1 -18 -7 -14 -37 3 -19 7 -37 9 -39 6
-7 -55 -41 -74 -41 -14 0 -17 9 -17 49 0 43 5 55 34 85 43 44 66 45 86 5z
m1055 -28 c17 -54 9 -62 -61 -60 -53 2 -59 5 -59 23 1 28 29 63 60 74 35 13
45 7 60 -37z m-247 20 c3 -12 -2 -26 -12 -33 -21 -18 -96 -9 -96 12 0 8 17 19
40 26 56 17 62 17 68 -5z m-693 -25 c0 -14 -12 -39 -27 -57 -25 -30 -28 -40
-26 -106 1 -40 -2 -73 -7 -73 -15 0 -80 33 -80 41 0 4 7 10 16 13 13 5 15 15
11 41 -5 33 -5 35 16 24 l22 -12 -20 22 c-11 13 -21 18 -23 12 -2 -6 -8 -9
-13 -6 -5 4 0 16 11 28 12 12 23 31 26 43 5 21 54 53 82 54 6 0 12 -11 12 -24z
m25 -61 c-10 -30 -22 -55 -27 -55 -5 0 -7 -4 -4 -9 3 -5 -2 -26 -11 -47 l-16
-39 -9 35 c-10 45 -3 77 28 113 14 17 24 41 24 60 0 30 1 30 17 14 16 -16 16
-20 -2 -72z m-489 39 c4 -14 21 -34 38 -45 30 -19 30 -19 6 -19 -33 0 -47 10
-59 43 -14 35 -14 47 -1 47 5 0 13 -12 16 -26z m859 -36 c19 -94 -5 -124 -88
-114 -44 6 -62 3 -110 -20 -69 -31 -106 -28 -156 14 -27 23 -32 31 -26 55 8
32 13 33 43 8 14 -12 20 -25 16 -36 -5 -13 -8 -14 -15 -3 -6 9 -9 9 -9 1 0
-19 20 -26 26 -9 4 11 19 16 44 16 21 0 54 7 74 15 20 8 36 12 36 9 0 -4 6 -2
13 4 6 6 29 13 50 17 45 9 81 49 74 83 -3 13 0 21 6 19 6 -2 16 -28 22 -59z
m757 18 c10 -19 10 -20 -6 -7 -9 8 -22 24 -28 35 -10 19 -10 20 6 7 9 -8 22
-24 28 -35z m-1986 -73 c17 -40 17 -42 0 -39 -33 5 -59 43 -81 116 -7 23 -5
23 30 -10 21 -19 44 -49 51 -67z m2124 82 c7 -8 9 -15 4 -15 -4 0 -3 -5 4 -12
21 -21 13 -32 -8 -13 -12 10 -19 24 -16 31 3 7 0 15 -7 18 -8 3 -8 5 -1 5 6 1
17 -6 24 -14z m-10 -47 c0 -15 -20 -8 -30 11 -17 33 -11 47 10 21 11 -14 20
-28 20 -32z m-1763 12 c11 -29 25 -35 81 -33 15 1 16 -13 1 -23 -6 -3 -8 -17
-5 -31 7 -25 -12 -53 -35 -53 -13 0 -64 15 -107 31 -21 8 -22 13 -16 61 8 61
18 78 48 78 15 0 25 -9 33 -30z m778 -3 c54 2 46 -10 -15 -22 -19 -3 -62 -15
-94 -26 -50 -17 -64 -18 -89 -8 l-29 12 58 28 c44 20 67 26 89 21 17 -4 53 -6
80 -5z m369 -18 c17 -20 26 -43 26 -65 0 -28 -4 -35 -27 -40 -16 -4 -33 -11
-39 -16 -15 -11 -41 -1 -48 19 -4 9 -2 30 3 47 5 17 12 43 15 59 9 37 37 35
70 -4z m183 -18 c51 -25 61 -40 38 -53 -9 -6 -23 -24 -31 -42 -12 -28 -13 -29
-12 -6 2 33 -27 81 -63 106 -60 40 -13 37 68 -5z m245 20 c4 -3 8 -24 10 -46
l3 -40 -40 2 c-94 4 -152 16 -98 21 37 3 43 12 8 12 -28 0 -28 0 -9 21 36 41
99 56 126 30z m-1812 -60 c31 -45 25 -69 -8 -33 -10 10 -13 12 -8 5 5 -8 7
-16 4 -18 -8 -8 -25 17 -47 68 l-21 48 30 -21 c16 -11 38 -34 50 -49z m-289
38 c22 -19 22 -20 4 -16 -11 3 -29 8 -40 12 -12 5 -17 4 -12 -1 5 -5 23 -14
40 -21 l32 -11 -28 -1 c-34 -1 -87 20 -106 42 -12 15 -9 17 37 17 36 0 56 -6
73 -21z m871 -6 c29 -26 24 -45 -9 -32 -19 7 -41 7 -75 -1 -43 -11 -51 -10
-83 10 -47 29 -54 21 -9 -10 33 -22 40 -23 87 -13 49 10 109 1 94 -14 -10 -9
-221 -11 -239 -1 -26 13 -22 41 8 55 27 13 84 7 84 -9 0 -5 8 -4 18 1 10 6 27
8 38 5 10 -3 28 2 39 10 25 19 25 19 47 -1z m932 -12 c17 -18 30 -44 32 -64 4
-33 2 -35 -43 -50 -26 -9 -51 -13 -56 -10 -13 8 -2 120 13 138 17 21 22 19 54
-14z m-1431 -17 c52 -38 66 -59 49 -76 -17 -17 -56 14 -85 66 -14 26 -23 46
-19 46 4 0 29 -16 55 -36z m-184 -37 c6 -8 8 -17 4 -20 -3 -4 1 -7 11 -7 9 0
14 -5 11 -10 -4 -7 -14 -6 -28 2 -19 10 -20 9 -10 -4 7 -8 10 -18 6 -21 -10
-11 -84 -8 -127 4 -36 10 -38 12 -20 22 10 6 44 12 74 12 84 3 88 4 60 20 -17
10 -20 14 -9 15 9 0 22 -6 28 -13z m339 -32 c42 -6 52 -11 50 -24 -2 -12 -18
-17 -65 -21 -34 -3 -60 -3 -57 -1 2 2 0 9 -5 15 -4 6 -11 26 -15 45 l-6 35 22
-21 c14 -13 44 -24 76 -28z m1414 7 c30 -53 30 -86 -2 -120 -33 -36 -46 -39
-78 -16 -28 19 -28 35 0 104 32 78 49 85 80 32z m-1253 7 c19 1 38 4 43 7 4 3
8 -5 9 -18 1 -23 1 -23 9 2 7 23 8 23 11 -10 2 -31 2 -32 6 -7 4 24 9 27 42
27 71 0 100 -58 36 -71 -52 -11 -121 -9 -133 3 -7 7 -35 13 -62 14 -60 1 -67
6 -52 40 10 20 17 24 35 18 12 -4 37 -6 56 -5z m403 -92 c51 -38 69 -57 62
-68 -3 -5 0 -8 8 -7 16 4 58 -78 58 -114 0 -15 -1 -28 -3 -28 -18 0 -146 58
-140 63 4 5 0 5 -9 2 -44 -17 -129 68 -148 146 -14 58 -27 58 -22 0 2 -23 8
-38 13 -35 8 5 14 -17 10 -39 -1 -4 3 -25 8 -46 4 -21 5 -45 1 -51 -5 -8 -12
8 -18 41 -6 35 -10 43 -10 24 -1 -16 9 -68 22 -115 21 -78 23 -82 29 -51 10
47 9 109 -2 129 -4 9 -11 31 -15 47 l-7 30 35 -35 c55 -55 57 -119 5 -204
l-18 -29 -42 87 c-41 86 -41 89 -36 169 3 45 8 91 11 102 2 11 5 26 5 32 1 9
11 7 34 -6 25 -14 32 -25 32 -47 0 -46 21 -72 85 -104 63 -32 75 -36 65 -21
-11 19 10 18 30 -1 20 -19 20 -19 0 -13 -11 3 -8 -1 8 -10 15 -8 27 -19 27
-24 0 -4 7 -8 14 -8 28 0 -49 78 -119 121 -37 22 -73 50 -79 61 -6 11 -15 23
-20 26 -4 4 0 19 9 33 l18 27 31 -29 c17 -15 47 -40 68 -55z m1028 23 c23 -12
33 -52 20 -84 -22 -60 -95 -11 -106 71 l-5 38 19 -22 c27 -31 36 -29 16 2
l-17 26 27 -11 c15 -5 36 -14 46 -20z m-1822 -8 c21 -14 -19 -41 -78 -52 -29
-5 -55 -10 -59 -10 -11 1 43 41 74 55 35 17 45 18 63 7z m697 -42 c11 -12 41
-33 67 -47 31 -17 45 -30 39 -36 -21 -21 -141 55 -141 89 0 20 14 17 35 -6z
m355 -55 c0 -8 -7 -15 -15 -15 -16 0 -20 12 -8 23 11 12 23 8 23 -8z m130 -45
c0 -5 -4 -10 -10 -10 -5 0 -10 5 -10 10 0 6 5 10 10 10 6 0 10 -4 10 -10z
m-533 -122 c-2 -13 -4 -3 -4 22 0 25 2 35 4 23 2 -13 2 -33 0 -45z"/>
<path d="M771 1595 c0 -5 6 -19 14 -29 8 -11 15 -15 15 -10 0 6 -7 19 -15 30
-8 10 -14 15 -14 9z"/>
<path d="M892 1560 c-18 -29 -15 -38 4 -12 9 13 14 25 12 27 -2 2 -9 -5 -16
-15z"/>
<path d="M892 1389 c-19 -30 -8 -34 12 -4 9 14 13 25 9 25 -5 0 -14 -9 -21
-21z"/>
<path d="M2519 1348 c-12 -23 -12 -23 10 -4 23 21 26 26 11 26 -5 0 -15 -10
-21 -22z"/>
<path d="M696 1297 c3 -10 9 -15 12 -12 3 3 0 11 -7 18 -10 9 -11 8 -5 -6z"/>
<path d="M2532 1170 c-13 -16 -30 -30 -40 -30 -16 -1 -16 -1 0 -11 13 -7 28
-4 58 11 22 11 40 25 40 31 0 6 -12 1 -26 -10 -32 -26 -53 -28 -32 -3 18 20
31 42 25 42 -2 0 -13 -13 -25 -30z"/>
<path d="M1867 1220 c3 -11 10 -23 16 -27 7 -4 8 0 4 11 -4 10 -7 22 -7 27 0
5 -4 9 -9 9 -5 0 -7 -9 -4 -20z"/>
<path d="M1975 1129 c-4 -6 -5 -12 -2 -15 2 -3 7 2 10 11 7 17 1 20 -8 4z"/>
<path d="M684 1217 c-7 -20 -1 -30 21 -33 19 -3 19 7 1 32 -14 18 -15 18 -22
1z m13 -19 c-3 -8 -6 -5 -6 6 -1 11 2 17 5 13 3 -3 4 -12 1 -19z"/>
<path d="M779 1102 c4 -14 14 -28 22 -30 11 -4 11 -2 2 8 -6 7 -9 18 -7 25 3
7 -1 15 -9 18 -12 4 -13 0 -8 -21z"/>
<path d="M750 1096 c0 -9 -4 -15 -9 -11 -5 3 -13 0 -17 -6 -4 -8 -3 -9 4 -5 8
5 12 -4 13 -26 1 -30 2 -29 10 11 5 25 6 47 4 50 -3 2 -5 -3 -5 -13z"/>
<path d="M760 1061 c0 -6 4 -13 10 -16 6 -3 7 1 4 9 -7 18 -14 21 -14 7z"/>
<path d="M600 1022 c0 -13 58 -52 75 -52 6 1 -3 8 -20 16 -16 9 -36 23 -42 32
-8 10 -13 11 -13 4z"/>
<path d="M658 1008 c5 -5 23 -10 42 -13 23 -3 30 -1 23 6 -6 6 -25 12 -42 13
-17 1 -27 -2 -23 -6z"/>
<path d="M1741 1164 c0 -11 3 -14 6 -6 3 7 2 16 -1 19 -3 4 -6 -2 -5 -13z"/>
<path d="M1797 1150 c7 -44 13 -51 13 -17 0 14 3 27 8 30 4 2 2 2 -5 1 -6 -2
-14 2 -17 9 -2 7 -2 -4 1 -23z"/>
<path d="M1791 1084 c0 -11 3 -14 6 -6 3 7 2 16 -1 19 -3 4 -6 -2 -5 -13z"/>
<path d="M2187 1123 c-4 -3 -7 -11 -7 -17 0 -6 5 -5 12 2 6 6 9 14 7 17 -3 3
-9 2 -12 -2z"/>
<path d="M574 1115 c5 -15 4 -16 -9 -5 -8 7 -15 8 -15 3 0 -14 39 -47 47 -40
3 4 1 7 -6 7 -8 0 -10 7 -6 19 3 11 0 23 -6 27 -9 5 -10 2 -5 -11z"/>
<path d="M1666 1125 c8 -37 14 -45 14 -19 0 10 -5 26 -10 34 -8 11 -9 7 -4
-15z"/>
<path d="M1620 1073 c0 -4 5 -15 10 -23 8 -13 10 -13 10 2 0 9 -4 20 -10 23
-5 3 -10 3 -10 -2z"/>
<path d="M1869 1033 c-13 -15 -12 -15 9 -4 23 12 28 21 13 21 -5 0 -15 -7 -22
-17z"/>
<path d="M1824 1005 c-10 -8 -14 -15 -8 -15 6 0 17 7 24 15 16 19 9 19 -16 0z"/>
<path d="M1788 943 c7 -3 16 -2 19 1 4 3 -2 6 -13 5 -11 0 -14 -3 -6 -6z"/>
<path d="M2288 1133 c7 -3 16 -2 19 1 4 3 -2 6 -13 5 -11 0 -14 -3 -6 -6z"/>
<path d="M1017 1041 c4 -9 8 -20 10 -24 6 -10 33 12 33 26 0 6 -7 2 -16 -9
-15 -19 -15 -19 -9 2 3 14 1 21 -9 21 -9 0 -12 -7 -9 -16z"/>
<path d="M905 940 c3 -5 8 -10 11 -10 2 0 4 5 4 10 0 6 -5 10 -11 10 -5 0 -7
-4 -4 -10z"/>
<path d="M1703 965 c0 -27 2 -38 4 -22 2 15 2 37 0 50 -2 12 -4 0 -4 -28z"/>
<path d="M1722 958 l1 -43 5 40 c3 33 6 37 13 20 8 -19 9 -19 6 -1 -1 11 -8
21 -14 24 -9 2 -13 -9 -11 -40z"/>
<path d="M1302 984 c-14 -15 -7 -17 22 -5 15 6 16 9 5 13 -8 3 -20 -1 -27 -8z"/>
<path d="M1314 938 c-5 -8 -2 -9 9 -5 9 3 19 2 22 -3 4 -6 11 -10 17 -10 7 0
6 6 -2 15 -15 18 -36 19 -46 3z"/>
<path d="M1987 1033 c-14 -13 -7 -23 16 -22 19 1 19 2 3 6 -15 4 -16 7 -5 14
8 5 9 9 3 9 -6 0 -14 -3 -17 -7z"/>
<path d="M1880 819 c0 -15 18 -19 23 -6 3 8 -1 14 -9 14 -8 0 -14 -4 -14 -8z"/>
<path d="M2189 990 c-20 -16 -39 -27 -42 -23 -7 7 -93 -42 -103 -59 -4 -7 8
-3 27 9 19 11 45 23 59 26 14 4 44 22 65 41 49 43 43 47 -6 6z"/>
<path d="M1113 955 c0 -27 2 -38 4 -22 2 15 2 37 0 50 -2 12 -4 0 -4 -28z"/>
<path d="M1133 940 c0 -25 2 -35 4 -22 2 12 2 32 0 45 -2 12 -4 2 -4 -23z"/>
<path d="M1210 933 c0 -14 1 -24 3 -22 1 2 8 11 15 20 10 14 10 18 -3 23 -11
4 -15 -1 -15 -21z"/>
<path d="M1170 883 c0 -7 4 -13 9 -13 5 0 11 6 14 13 3 8 -1 14 -9 14 -8 0
-14 -6 -14 -14z"/>
<path d="M1030 822 c0 -11 20 -38 20 -27 0 6 5 3 10 -5 5 -8 10 -10 10 -5 0 6
-9 18 -20 28 -11 9 -20 13 -20 9z"/>
<path d="M1510 931 c0 -11 4 -22 9 -25 4 -3 6 6 3 19 -5 30 -12 33 -12 6z"/>
<path d="M956 882 c-3 -5 1 -9 9 -9 8 0 12 4 9 9 -3 4 -7 8 -9 8 -2 0 -6 -4
-9 -8z"/>
<path d="M1697 852 c3 -12 9 -25 14 -28 14 -8 11 10 -6 32 -13 18 -14 18 -8
-4z"/>
<path d="M1650 838 c0 -9 5 -20 11 -23 17 -11 18 -2 3 19 -12 17 -14 17 -14 4z"/>
<path d="M1522 820 c0 -14 2 -19 5 -12 2 6 2 18 0 25 -3 6 -5 1 -5 -13z"/>
<path d="M1550 821 c0 -25 6 -27 13 -6 4 8 2 17 -3 20 -6 4 -10 -3 -10 -14z"/>
<path d="M1228 822 c7 -5 10 -17 6 -28 -5 -16 -4 -16 5 -4 9 12 11 13 11 1 0
-8 3 -12 6 -9 9 9 -15 48 -29 48 -9 0 -9 -2 1 -8z"/>
<path d="M1210 781 c0 -6 4 -13 10 -16 6 -3 7 1 4 9 -7 18 -14 21 -14 7z"/>
<path d="M1340 816 c0 -3 9 -10 20 -16 11 -6 20 -8 20 -6 0 3 -9 10 -20 16
-11 6 -20 8 -20 6z"/>
<path d="M1320 776 c0 -3 9 -10 20 -16 11 -6 20 -8 20 -6 0 3 -9 10 -20 16
-11 6 -20 8 -20 6z"/>
<path d="M1726 727 c3 -10 9 -15 12 -12 3 3 0 11 -7 18 -10 9 -11 8 -5 -6z"/>
<path d="M1687 709 c4 -13 8 -18 11 -10 2 7 -1 18 -6 23 -8 8 -9 4 -5 -13z"/>
<path d="M1455 709 c-4 -6 -5 -12 -2 -15 2 -3 7 2 10 11 7 17 1 20 -8 4z"/>
<path d="M1641 694 c0 -11 3 -14 6 -6 3 7 2 16 -1 19 -3 4 -6 -2 -5 -13z"/>
<path d="M551 745 c0 -5 6 -19 14 -29 8 -11 15 -15 15 -10 0 6 -7 19 -15 30
-8 10 -14 15 -14 9z"/>
<path d="M890 738 c0 -4 7 -8 15 -8 15 0 19 -11 16 -38 -1 -8 14 -2 38 14 23
15 41 28 41 29 0 6 -26 -2 -50 -15 -23 -12 -24 -12 -11 4 12 14 12 16 -4 10
-12 -5 -16 -4 -11 4 4 7 -1 10 -14 9 -11 -1 -20 -5 -20 -9z"/>
<path d="M2171 724 c0 -11 3 -14 6 -6 3 7 2 16 -1 19 -3 4 -6 -2 -5 -13z"/>
<path d="M805 650 c10 -11 20 -20 22 -20 2 0 -2 9 -9 20 -7 11 -17 20 -22 20
-5 0 -1 -9 9 -20z"/>
<path d="M501 626 c10 -9 79 -14 74 -5 -4 5 -22 9 -42 9 -20 0 -34 -2 -32 -4z"/>
<path d="M2310 640 c0 -11 2 -20 4 -20 2 0 6 9 9 20 3 11 1 20 -4 20 -5 0 -9
-9 -9 -20z"/>
<path d="M1202 620 c0 -14 2 -19 5 -12 2 6 2 18 0 25 -3 6 -5 1 -5 -13z"/>
<path d="M664 554 c-18 -14 -18 -14 6 -3 31 14 36 19 24 19 -6 0 -19 -7 -30
-16z"/>
<path d="M1400 517 c23 -26 100 -74 100 -62 0 2 -15 12 -32 21 -18 9 -46 28
-63 43 l-30 26 25 -28z"/>
<path d="M110 1590 c0 -5 5 -10 11 -10 5 0 7 5 4 10 -3 6 -8 10 -11 10 -2 0
-4 -4 -4 -10z"/>
<path d="M540 1590 c0 -5 5 -10 11 -10 5 0 7 5 4 10 -3 6 -8 10 -11 10 -2 0
-4 -4 -4 -10z"/>
<path d="M1810 1590 c0 -5 5 -10 10 -10 6 0 10 5 10 10 0 6 -4 10 -10 10 -5 0
-10 -4 -10 -10z"/>
<path d="M1980 1589 c0 -5 5 -7 10 -4 6 3 10 8 10 11 0 2 -4 4 -10 4 -5 0 -10
-5 -10 -11z"/>
<path d="M680 1520 c-21 -39 38 -108 108 -126 33 -9 37 0 17 48 -33 83 -100
125 -125 78z m61 0 c10 -6 28 -30 40 -53 12 -23 15 -36 8 -29 -25 23 -33 12
-9 -13 25 -27 21 -31 -13 -14 -38 20 -77 62 -77 84 0 36 16 43 51 25z"/>
<path d="M280 1420 c0 -5 5 -10 11 -10 5 0 7 5 4 10 -3 6 -8 10 -11 10 -2 0
-4 -4 -4 -10z"/>
<path d="M1055 1420 c-3 -5 -1 -10 4 -10 6 0 11 5 11 10 0 6 -2 10 -4 10 -3 0
-8 -4 -11 -10z"/>
<path d="M1216 1367 c3 -10 9 -15 12 -12 3 3 0 11 -7 18 -10 9 -11 8 -5 -6z"/>
<path d="M2594 1068 c-3 -5 -35 -22 -71 -38 -37 -17 -64 -32 -61 -35 3 -3 24
3 48 14 33 15 56 18 98 14 48 -5 55 -4 49 10 -3 9 -2 19 3 22 6 4 10 10 10 15
0 12 -69 10 -76 -2z m48 -10 c-14 -7 -26 -8 -32 -2 -5 5 4 10 23 11 30 1 31 1
9 -9z m-4 -25 c-10 -2 -28 -2 -40 0 -13 2 -5 4 17 4 22 1 32 -1 23 -4z"/>
<path d="M190 995 c0 -3 13 -32 30 -65 31 -62 61 -90 96 -90 12 0 49 -25 85
-58 35 -33 72 -59 82 -59 20 0 22 8 5 25 -7 7 -13 28 -15 48 -2 41 -35 99 -69
121 -14 9 -26 14 -28 12 -5 -5 9 -85 20 -114 6 -16 1 -14 -24 9 -18 17 -32 37
-32 47 0 25 -38 68 -89 100 -43 28 -61 35 -61 24z m93 -60 c31 -20 52 -64 38
-78 -15 -15 -61 20 -88 69 -29 51 -29 60 2 40 14 -9 36 -23 48 -31z m162 -85
c19 -37 29 -73 18 -67 -5 3 -15 2 -22 -3 -10 -6 -9 -9 7 -14 11 -4 23 -13 26
-22 8 -21 -22 -3 -54 32 -14 15 -19 24 -12 20 15 -9 15 -6 -3 37 -8 20 -15 46
-15 58 0 22 0 22 21 3 12 -10 27 -30 34 -44z"/>
<path d="M261 913 c0 -4 13 -18 30 -31 16 -13 27 -18 24 -10 -7 16 -55 52 -54
41z"/>
<path d="M430 825 c0 -5 5 -17 10 -25 5 -8 10 -10 10 -5 0 6 -5 17 -10 25 -5
8 -10 11 -10 5z"/>
<path d="M370 989 c0 -5 5 -7 10 -4 6 3 10 8 10 11 0 2 -4 4 -10 4 -5 0 -10
-5 -10 -11z"/>
<path d="M2920 740 c0 -5 5 -10 10 -10 6 0 10 5 10 10 0 6 -4 10 -10 10 -5 0
-10 -4 -10 -10z"/>
<path d="M285 650 c-3 -5 -1 -10 4 -10 6 0 11 5 11 10 0 6 -2 10 -4 10 -3 0
-8 -4 -11 -10z"/>
<path d="M2750 570 c0 -5 5 -10 10 -10 6 0 10 5 10 10 0 6 -4 10 -10 10 -5 0
-10 -4 -10 -10z"/>
<path d="M779 523 c-13 -15 -12 -15 9 -4 23 12 28 21 13 21 -5 0 -15 -7 -22
-17z"/>
<path d="M1055 400 c-3 -5 -1 -10 4 -10 6 0 11 5 11 10 0 6 -2 10 -4 10 -3 0
-8 -4 -11 -10z"/>
<path d="M195 390 c-3 -5 -1 -10 4 -10 6 0 11 5 11 10 0 6 -2 10 -4 10 -3 0
-8 -4 -11 -10z"/>
<path d="M280 389 c0 -5 5 -7 10 -4 6 3 10 8 10 11 0 2 -4 4 -10 4 -5 0 -10
-5 -10 -11z"/>
<path d="M710 309 c0 -5 5 -7 10 -4 6 3 10 8 10 11 0 2 -4 4 -10 4 -5 0 -10
-5 -10 -11z"/>
<path d="M2066 235 c4 -8 8 -15 10 -15 2 0 4 7 4 15 0 8 -4 15 -10 15 -5 0 -7
-7 -4 -15z"/>
<path d="M1560 229 c0 -5 5 -7 10 -4 6 3 10 8 10 11 0 2 -4 4 -10 4 -5 0 -10
-5 -10 -11z"/>
<path d="M365 220 c-3 -5 -1 -10 4 -10 6 0 11 5 11 10 0 6 -2 10 -4 10 -3 0
-8 -4 -11 -10z"/>
<path d="M450 220 c0 -5 5 -10 10 -10 6 0 10 5 10 10 0 6 -4 10 -10 10 -5 0
-10 -4 -10 -10z"/>
<path d="M898 203 c7 -3 16 -2 19 1 4 3 -2 6 -13 5 -11 0 -14 -3 -6 -6z"/>
<path d="M880 140 c0 -5 5 -10 10 -10 6 0 10 5 10 10 0 6 -4 10 -10 10 -5 0
-10 -4 -10 -10z"/>
<path d="M2675 140 c-3 -5 -1 -10 4 -10 6 0 11 5 11 10 0 6 -2 10 -4 10 -3 0
-8 -4 -11 -10z"/>
<path d="M360 129 c0 -5 5 -7 10 -4 6 3 10 8 10 11 0 2 -4 4 -10 4 -5 0 -10
-5 -10 -11z"/>
<path d="M1390 60 c0 -5 5 -10 11 -10 5 0 7 5 4 10 -3 6 -8 10 -11 10 -2 0 -4
-4 -4 -10z"/>
<path d="M1560 60 c0 -5 5 -10 10 -10 6 0 10 5 10 10 0 6 -4 10 -10 10 -5 0
-10 -4 -10 -10z"/>
<path d="M1730 60 c0 -5 5 -10 11 -10 5 0 7 5 4 10 -3 6 -8 10 -11 10 -2 0 -4
-4 -4 -10z"/>
<path d="M1900 60 c0 -5 5 -10 10 -10 6 0 10 5 10 10 0 6 -4 10 -10 10 -5 0
-10 -4 -10 -10z"/>
</g>
</svg>
